<svg width="105" height="63" viewBox="0 0 105 63" fill="none" xmlns="http://www.w3.org/2000/svg">
<g clip-path="url(#clip0_213_724)">
<mask id="mask0_213_724" style="mask-type:luminance" maskUnits="userSpaceOnUse" x="0" y="19" width="39" height="35">
<path d="M0.21344 19.4085H38.368V53.2254H0.21344V19.4085Z" fill="white"/>
</mask>
<g mask="url(#mask0_213_724)">
<path fill-rule="evenodd" clip-rule="evenodd" d="M31.4187 36.3862C36.9252 35.462 37.023 27.9933 32.6258 25.375L33.6395 25.7143C38.179 28.0424 37.5054 36.8705 31.4187 36.3862ZM38.4725 31.0491C38.4725 34.8326 35.4758 37.9353 31.5632 38.4219C30.8384 38.3728 29.9203 38.0804 29.2934 38.0804C29.389 38.567 29.8247 38.9062 30.3071 39.1495C30.0648 43.029 29.9203 47.0067 30.7895 51.2745C29.5824 52.2433 27.4082 52.8772 24.8962 53.2143C24.8962 53.2143 24.5116 53.2634 24.1737 53.0692C23.8825 52.8772 23.7846 52.3415 23.7846 52.2924C23.8358 51.6138 23.9314 50.8884 23.9803 50.2076C24.2693 47.4442 24.7028 43.6116 25.3786 40.9442C25.7187 39.4397 26.1522 40.1674 27.4082 39.2946C28.0374 38.9062 28.4709 38.2768 28.7132 36.9665C29.1956 34.2991 28.7132 30.5156 26.828 30.1763H26.7813C24.8962 29.7879 23.1088 33.1339 22.5775 35.8504C22.3374 37.1607 22.5308 37.8393 22.9643 38.471C23.8358 39.7299 24.5583 39.1004 24.3649 40.75C23.9803 43.4643 23.0621 46.9576 22.3863 49.6272C22.144 50.692 21.8528 51.808 21.5149 52.9732C21.4193 53.0692 21.3704 53.1674 21.2726 53.1674C21.0325 53.2143 20.9369 52.779 20.888 52.7299C20.3078 48.4129 19.6786 40.7009 19.7764 37.5C19.872 35.7054 21.8039 36.6272 21.7572 34.7344C21.6594 31.7277 21.466 29.1562 21.5149 26.1495C21.5149 25.9576 21.3704 25.9576 21.3215 25.9576C21.2726 25.9576 21.1281 26.0045 21.0814 26.1495L20.8391 33.183C20.8391 33.4263 20.3567 33.4263 20.3078 33.1339L20.1144 25.9576C20.1144 25.8594 20.0165 25.8103 19.9209 25.8103C19.872 25.8103 19.8254 25.8594 19.8254 25.9576L19.5341 33.0848C19.4875 33.4263 19.0028 33.4263 18.9561 33.0848L18.6649 25.9576C18.6649 25.8594 18.616 25.8103 18.5693 25.8103C18.4737 25.8103 18.3759 25.8594 18.3759 25.9576L18.1825 33.1339C18.1336 33.4263 17.6512 33.4263 17.7001 33.183L17.4089 26.1495C17.3622 26.0045 17.2155 25.9576 17.1688 25.9576C17.1199 25.9576 16.9754 25.9576 16.9754 26.1495C17.0221 29.1562 16.8287 31.7277 16.7331 34.7344C16.6864 36.6272 18.6649 35.8013 18.7116 37.5C18.8094 40.75 18.1825 48.7031 17.5534 52.9241C17.5067 53.1183 17.4089 53.2634 17.2644 53.2143C17.1688 53.2143 17.0221 53.0692 16.9754 52.9241C16.6353 51.0335 16.2996 48.8482 16.1039 46.4732C16.1039 46.3281 16.0573 46.1339 16.0083 45.9397C15.9594 45.7946 15.8149 45.7455 15.6704 45.6987C15.6215 45.6495 15.477 44.7277 15.5726 44.6295C15.7193 44.3393 15.9128 44.4844 15.766 43.6116L14.1721 30.6138C14.1721 30.6138 14.0765 28.9152 12.965 29.5469C12.3358 29.8839 11.8534 30.904 11.7089 32.4554C11.5644 34.6384 11.7578 43.6116 12.5782 44.2902C12.965 44.6295 13.3496 44.9196 14.1721 44.8728H14.221C14.4144 44.8728 14.5122 45.7455 14.4611 45.7946C14.3166 45.8906 14.2699 45.9888 14.221 46.183C14.2699 46.375 14.2699 46.5201 14.2699 46.6674C14.6078 48.8973 14.6078 50.9353 14.5122 52.683C14.4611 52.779 14.4144 52.8281 14.3655 52.8772C14.1254 53.1674 13.7386 53.1674 13.6408 53.1674C10.9375 52.8281 8.76114 52.1473 7.98751 51.2745C8.66555 46.375 8.61664 42.6406 8.42546 39.0513C9.19686 38.9554 9.92158 38.7612 10.7908 38.2768C10.0661 38.3259 10.5507 38.2768 9.77486 38.3728C9.24577 38.471 8.81005 38.5179 8.37655 38.5179C8.32764 38.5179 8.27874 38.5179 8.23205 38.5179C7.79633 38.5179 7.40952 38.471 6.8782 38.4219C3.1101 37.7902 0.21344 34.7344 0.21344 31.0491C0.21344 28.721 1.32275 26.683 3.06341 25.2768C6.00898 22.9978 8.32764 23.5312 11.8067 25.0826C12.7716 25.5201 12.3847 25.4219 13.254 25.5201C11.7578 24.5491 10.404 23.6272 8.95455 23.1429C10.2128 20.9107 12.965 19.4085 16.1528 19.4085C18.1336 19.4085 19.9699 20.0379 21.3704 21.0089H21.3215C18.8583 22.5603 18.3759 23.2411 15.2836 23.2879C17.4089 24.5 20.599 22.4152 22.0484 21.7857C24.4627 20.6696 26.828 21.1049 28.9533 22.7076C27.7484 22.6585 24.3649 23.8214 23.5446 26.0045C29.2934 22.6094 38.4725 22.4643 38.4725 31.0491ZM2.57879 32.6004C3.73923 35.6071 5.9623 37.0156 9.67927 37.2098L8.61664 37.4018C6.5403 37.5 4.46395 36.6272 3.20791 34.9777C2.57879 34.154 2.48319 33.5714 2.57879 32.6004Z" fill="#3A7D3F"/>
</g>
<path fill-rule="evenodd" clip-rule="evenodd" d="M83.743 43.3728C83.7319 43.433 83.7564 43.5513 83.8364 43.6987C83.9698 43.9509 84.2499 44.3438 84.5344 44.7232C84.8545 45.1496 85.088 45.6339 85.2658 45.8594C85.3281 45.9397 85.3903 45.9933 85.4437 46.0179C85.5126 46.0513 85.577 46.0513 85.6393 46.0246C86.1417 45.8125 87.6112 44.9397 89.0206 44.1384C90.1077 43.5223 91.1592 42.9531 91.586 42.6697C91.7194 42.5781 91.7994 42.5045 91.8239 42.4643C91.8394 42.4397 91.8505 42.4063 91.8505 42.3638C91.8505 42.3281 91.8417 42.2746 91.815 42.2076C91.7172 41.9621 91.3659 41.4241 91.0347 40.9018C90.7257 40.4107 90.4389 39.933 90.2944 39.7433C90.2344 39.6652 90.181 39.625 90.1543 39.6116C90.0988 39.5893 90.0165 39.5804 89.9143 39.6005C89.7542 39.6317 89.5097 39.7366 89.2118 39.8929C88.2714 40.3862 86.7375 41.413 85.4414 42.1518C84.859 42.4866 84.3143 42.7433 84.0187 42.9844C83.8564 43.1138 83.7652 43.2455 83.743 43.3728ZM90.0254 39.8906C90.1477 40.029 90.4478 40.5402 90.7812 41.0647C91.0347 41.4643 91.3014 41.875 91.4504 42.1473C91.486 42.2098 91.5171 42.2857 91.5349 42.3281C91.4793 42.3705 91.3615 42.4554 91.2348 42.5335C90.7368 42.8393 89.8164 43.3393 88.8739 43.875C87.5089 44.6496 86.0906 45.4933 85.5593 45.7299C85.5326 45.7009 85.4726 45.6362 85.4303 45.5692C85.2636 45.317 85.0524 44.9085 84.7745 44.5424C84.5011 44.1763 84.2299 43.7991 84.1031 43.5558C84.0742 43.5022 84.0476 43.4308 84.0409 43.4152C84.052 43.3772 84.0787 43.3415 84.1143 43.3058C84.1676 43.2455 84.2454 43.1875 84.3366 43.125C84.6411 42.9197 85.1035 42.6942 85.5904 42.4152C86.882 41.6786 88.4137 40.654 89.3496 40.1607C89.5808 40.0402 89.772 39.9531 89.9143 39.913C89.952 39.9018 89.9854 39.8951 90.0143 39.8929C90.0187 39.8929 90.0232 39.8929 90.0254 39.8906Z" fill="#3A7D3F"/>
<path fill-rule="evenodd" clip-rule="evenodd" d="M77.843 20.4085C74.4217 21.9152 72.9567 23.8594 72.7188 25.7768C72.4809 27.6987 73.4791 29.6116 75.0352 31.0647C75.7866 31.7679 77.2939 32.4397 79.1324 32.8594C81.8712 33.4821 85.3458 33.5446 88.1202 32.3437C90.3766 31.3661 91.8016 29.971 92.2485 28.317C92.6953 26.6629 92.1662 24.7411 90.4678 22.7031C89.2829 21.279 87.4466 20.4353 85.497 20.0156C82.5892 19.3906 79.4325 19.7076 77.843 20.4085ZM77.9652 20.6853C79.5147 20.0022 82.5959 19.7009 85.4325 20.3125C87.3155 20.7165 89.0917 21.5223 90.2366 22.8973C91.8528 24.8393 92.3818 26.6629 91.9572 28.2388C91.5304 29.817 90.1543 31.1317 88.0024 32.0647C85.2836 33.2433 81.8823 33.1741 79.199 32.5625C77.425 32.1607 75.9667 31.5223 75.2398 30.8437C73.7592 29.4598 72.7899 27.6451 73.0189 25.8147C73.2457 23.9732 74.6795 22.1339 77.9652 20.6853Z" fill="#3A7D3F"/>
<path fill-rule="evenodd" clip-rule="evenodd" d="M72.7321 25.6049C72.5632 27.3549 72.0208 30.4196 75.6666 33.183C77.0115 34.2009 78.8367 34.7835 80.7507 35.0156C83.6118 35.3661 86.6708 34.9397 88.6271 34.0647C90.5122 33.2187 91.9617 31.2768 92.304 29.9018C92.7598 28.0737 92.4797 26.9219 92.2929 26.0335C92.2751 25.9509 92.1951 25.8995 92.1129 25.9174C92.0306 25.9353 91.9795 26.0156 91.9973 26.096C92.1773 26.9531 92.4508 28.0647 92.0106 29.8281C91.6838 31.1384 90.3011 32.9821 88.5026 33.7879C86.5885 34.6451 83.5896 35.058 80.7863 34.7165C78.9278 34.4888 77.1538 33.9308 75.8467 32.9397C72.3342 30.279 72.87 27.3214 73.0345 25.6339C73.0411 25.5513 72.9811 25.4754 72.8989 25.4687C72.8144 25.4598 72.741 25.5201 72.7321 25.6049Z" fill="#3A7D3F"/>
<mask id="mask1_213_724" style="mask-type:luminance" maskUnits="userSpaceOnUse" x="70" y="26" width="35" height="26">
<path d="M70.5691 26.2857H104.411V52H70.5691V26.2857Z" fill="white"/>
</mask>
<g mask="url(#mask1_213_724)">
<path fill-rule="evenodd" clip-rule="evenodd" d="M72.6432 26.9799C72.1875 28.4777 71.2449 29.8705 70.9293 31.3281C70.5002 33.3103 70.8715 35.3058 71.9763 36.7969C73.5325 38.8973 77.5407 43.5223 80.9753 47.1362C83.0783 49.3482 84.9146 51.2924 86.0128 51.7366C86.1662 51.7991 86.4018 51.8036 86.7064 51.7433C87.1154 51.6607 87.6623 51.4665 88.3137 51.183C92.5708 49.3281 101.292 43.6518 103.626 41.9911C103.953 41.7589 104.122 41.3616 104.16 40.9107C104.211 40.2723 103.997 39.5313 103.655 39.0737C102.846 37.9955 101.419 35.1451 99.1733 32.7277C96.2278 29.5625 92.4374 26.846 92.4374 26.846C92.3708 26.7991 92.2752 26.8147 92.2263 26.8817C92.1796 26.9509 92.1951 27.0446 92.2618 27.0938C92.2618 27.0938 96.0277 29.7902 98.9533 32.9353C101.19 35.3415 102.608 38.183 103.413 39.2567C103.717 39.6607 103.904 40.3192 103.857 40.8862C103.828 41.2411 103.708 41.5603 103.451 41.7433C101.127 43.3996 92.4352 49.0558 88.1936 50.904C87.5667 51.1786 87.0398 51.3661 86.6486 51.4442C86.4196 51.4911 86.2418 51.5022 86.1262 51.4554C85.7015 51.2835 85.1658 50.8772 84.5456 50.317C83.5896 49.4576 82.4403 48.2388 81.1932 46.9263C77.7696 43.3237 73.7703 38.7098 72.2186 36.6161C71.1649 35.192 70.8137 33.2857 71.2249 31.3929C71.5384 29.942 72.4787 28.558 72.9322 27.0692C72.9567 26.9888 72.91 26.904 72.8322 26.8795C72.7522 26.8549 72.6677 26.8996 72.6432 26.9799Z" fill="#3A7D3F"/>
</g>
<mask id="mask2_213_724" style="mask-type:luminance" maskUnits="userSpaceOnUse" x="80" y="41" width="25" height="13">
<path d="M80.813 41.1429H104.146V53.4442H80.813V41.1429Z" fill="white"/>
</mask>
<g mask="url(#mask2_213_724)">
<path fill-rule="evenodd" clip-rule="evenodd" d="M80.9642 47.1518C80.9642 47.1518 82.4981 50.9196 83.5007 51.8995C84.0342 52.4219 84.7945 52.9062 85.5637 53.1049C86.095 53.2411 86.6286 53.2433 87.0999 53.0402C88.6627 52.3638 91.6016 50.3549 94.7494 48.462C98.2063 46.3839 101.874 44.4018 103.33 43.4263C103.491 43.317 103.613 43.1116 103.693 42.8705C103.86 42.3705 103.866 41.7187 103.866 41.7187C103.868 41.6339 103.802 41.567 103.717 41.5647C103.635 41.5647 103.566 41.6317 103.566 41.7143C103.566 41.7143 103.562 42.1585 103.462 42.5759C103.404 42.8237 103.319 43.0692 103.164 43.1741C101.71 44.1495 98.044 46.1272 94.5938 48.2031C91.4615 50.087 88.536 52.0893 86.9798 52.7612C86.5685 52.9397 86.1017 52.9308 85.6393 52.8125C84.9212 52.625 84.2099 52.1696 83.7097 51.6808C82.7315 50.7254 81.2421 47.0379 81.2421 47.0379C81.2109 46.9598 81.1242 46.9241 81.0464 46.9554C80.9686 46.9866 80.9308 47.0759 80.9642 47.1518Z" fill="#3A7D3F"/>
</g>
<path fill-rule="evenodd" clip-rule="evenodd" d="M81.0442 41.6071C81.0553 41.7165 81.1643 41.9576 81.3555 42.2857C81.7645 42.9866 82.547 44.1384 83.3384 45.2946C84.0876 46.3884 84.8412 47.4911 85.3814 48.1161C85.6349 48.4085 85.8527 48.596 86.0017 48.654C86.0773 48.683 86.1862 48.6897 86.3218 48.663C86.4841 48.6339 86.6953 48.558 86.9443 48.4487C87.8713 48.0402 89.3585 47.1362 90.7613 46.3237C91.8861 45.6763 92.9843 45.1362 93.5623 44.7165C93.7246 44.6005 93.8491 44.4911 93.9269 44.3906C93.9936 44.3058 94.0314 44.221 94.0403 44.1473C94.0447 44.1138 94.0425 44.0692 94.0292 44.0156C94.0092 43.9353 93.9625 43.8214 93.8891 43.6763C93.5134 42.9241 92.4241 41.308 91.4615 39.8817C90.7635 38.8505 90.161 37.9219 89.7587 37.4755C89.6431 37.3482 89.5408 37.2567 89.4563 37.2076C89.3674 37.1563 89.2874 37.1451 89.2229 37.1563C88.387 37.317 86.1173 38.5402 84.1365 39.5915C83.0139 40.1853 81.9624 40.6987 81.4422 41.0714C81.2932 41.1786 81.1843 41.279 81.122 41.3638C81.0598 41.4509 81.0376 41.5335 81.0442 41.6071ZM89.2718 37.4554C89.2807 37.4598 89.3118 37.4732 89.3341 37.4888C89.3919 37.529 89.4608 37.596 89.5364 37.6808C89.9321 38.1183 90.5234 39.0357 91.2103 40.0513C92.0484 41.2902 92.9821 42.6741 93.4512 43.5C93.569 43.7054 93.6557 43.875 93.7046 43.9978C93.7246 44.0446 93.738 44.1027 93.7402 44.1116C93.7335 44.1518 93.7002 44.1942 93.6579 44.2411C93.5935 44.3125 93.5001 44.3884 93.3867 44.471C92.8132 44.8862 91.7239 45.4196 90.6123 46.0625C89.2185 46.8661 87.7423 47.7656 86.8242 48.1696C86.5997 48.2701 86.4107 48.3393 86.2662 48.3661C86.1995 48.3795 86.1462 48.3862 86.1084 48.3705C85.9861 48.3237 85.8172 48.1563 85.6104 47.9174C85.0724 47.2991 84.3277 46.2054 83.5874 45.1228C82.8005 43.9732 82.0224 42.8304 81.6156 42.1339C81.4599 41.8661 81.3555 41.6741 81.3443 41.5804C81.3466 41.5781 81.351 41.5692 81.3532 41.5647C81.3621 41.5469 81.3755 41.5313 81.3888 41.5134C81.4399 41.4531 81.52 41.3884 81.6178 41.3192C82.1313 40.9487 83.1695 40.4464 84.2766 39.8594C86.2195 38.8281 88.4426 37.6205 89.2718 37.4554Z" fill="#3A7D3F"/>
<path fill-rule="evenodd" clip-rule="evenodd" d="M89.992 37.0737C90.0054 37.1786 90.1143 37.404 90.3055 37.712C90.7145 38.3638 91.4882 39.4286 92.2707 40.5C93.0087 41.5134 93.7535 42.5357 94.2826 43.1094C94.5315 43.3795 94.7427 43.5536 94.8872 43.6027C94.9606 43.6295 95.0651 43.6317 95.194 43.6027C95.3452 43.567 95.5453 43.4911 95.7765 43.3772C96.639 42.962 98.0106 42.0603 99.3089 41.2478C100.349 40.596 101.367 40.0513 101.901 39.6362C102.05 39.5201 102.163 39.4107 102.234 39.3147C102.297 39.2299 102.328 39.1495 102.335 39.0759C102.339 39.0446 102.335 39.0022 102.321 38.9487C102.299 38.875 102.252 38.7656 102.179 38.6295C101.801 37.9308 100.723 36.4308 99.7713 35.1094C99.0799 34.154 98.4842 33.2924 98.0929 32.8839C97.9773 32.7656 97.8773 32.6808 97.795 32.6384C97.7083 32.5893 97.6305 32.5804 97.5683 32.596C96.7857 32.7723 94.6805 34.0022 92.8465 35.0603C91.8083 35.6607 90.8301 36.1786 90.3522 36.5491C90.2143 36.6562 90.1143 36.7522 90.0587 36.837C90.0009 36.9241 89.9831 37.0045 89.992 37.0737ZM97.6261 32.8929C97.6327 32.8973 97.6616 32.9085 97.6794 32.9196C97.735 32.9576 97.8017 33.0179 97.875 33.0937C98.2618 33.4978 98.8465 34.346 99.5268 35.2879C100.354 36.4353 101.276 37.7165 101.745 38.4844C101.861 38.6763 101.95 38.8326 101.999 38.9464C102.017 38.9888 102.032 39.0424 102.034 39.0513C102.028 39.0893 102.001 39.1272 101.963 39.1719C101.903 39.2411 101.819 39.317 101.716 39.3973C101.19 39.8058 100.178 40.346 99.1511 40.9888C97.8617 41.7946 96.5012 42.692 95.6475 43.1049C95.4386 43.2054 95.2629 43.2768 95.1295 43.3058C95.0673 43.3192 95.0206 43.3281 94.9873 43.317C94.8694 43.2768 94.7072 43.1228 94.5049 42.904C93.9802 42.3348 93.2444 41.3237 92.513 40.3214C91.7349 39.2567 90.968 38.1987 90.5611 37.5491C90.4077 37.3036 90.3055 37.1272 90.2921 37.0402C90.2944 37.0335 90.3122 37 90.3299 36.9777C90.3766 36.9219 90.4455 36.8571 90.5367 36.7879C91.008 36.4241 91.9728 35.9152 92.9976 35.3237C94.7939 34.2879 96.848 33.0759 97.6261 32.8929Z" fill="#3A7D3F"/>
<path d="M94.4871 39.1005C94.4871 39.2567 94.4671 39.4085 94.4248 39.5536C94.3826 39.6987 94.3248 39.8281 94.247 39.9375C94.1692 40.0491 94.0803 40.1362 93.9802 40.1942C93.8802 40.2545 93.7757 40.2857 93.6668 40.2857C93.5578 40.2857 93.4534 40.2545 93.3511 40.1942C93.2511 40.1362 93.1621 40.0491 93.0843 39.9375C93.0087 39.8281 92.9487 39.6987 92.9065 39.5536C92.8642 39.4085 92.8442 39.2567 92.8442 39.1005C92.8442 38.942 92.8642 38.7924 92.9065 38.6473C92.9487 38.5 93.0087 38.3728 93.0843 38.2612C93.1621 38.1496 93.2511 38.0647 93.3511 38.0045C93.4534 37.9442 93.5578 37.9152 93.6668 37.9152C93.7757 37.9152 93.8802 37.9442 93.9802 38.0045C94.0803 38.0647 94.1692 38.1496 94.247 38.2612C94.3248 38.3728 94.3826 38.5 94.4248 38.6473C94.4671 38.7924 94.4871 38.942 94.4871 39.1005Z" fill="#3A7D3F"/>
<path d="M96.5813 37.8817C96.5813 38.0402 96.5613 38.192 96.519 38.3371C96.479 38.4822 96.419 38.6094 96.3412 38.721C96.2656 38.8326 96.1767 38.9174 96.0744 38.9777C95.9744 39.038 95.8699 39.0692 95.761 39.0692C95.652 39.0692 95.5475 39.038 95.4453 38.9777C95.3452 38.9174 95.2563 38.8326 95.1785 38.721C95.1029 38.6094 95.0429 38.4822 95.0007 38.3371C94.9584 38.192 94.9384 38.0402 94.9384 37.8817C94.9384 37.7255 94.9584 37.5737 95.0007 37.4286C95.0429 37.2835 95.1029 37.1563 95.1785 37.0447C95.2563 36.933 95.3452 36.8482 95.4453 36.788C95.5475 36.7277 95.652 36.6964 95.761 36.6964C95.8699 36.6964 95.9744 36.7277 96.0744 36.788C96.1767 36.8482 96.2656 36.933 96.3412 37.0447C96.419 37.1563 96.479 37.2835 96.519 37.4286C96.5613 37.5737 96.5813 37.7255 96.5813 37.8817Z" fill="#3A7D3F"/>
<path d="M98.7176 36.6228C98.7176 36.7812 98.6954 36.9308 98.6531 37.0759C98.6131 37.221 98.5531 37.3504 98.4753 37.4621C98.3997 37.5714 98.3108 37.6585 98.2085 37.7187C98.1085 37.779 98.004 37.808 97.895 37.808C97.7861 37.808 97.6816 37.779 97.5794 37.7187C97.4793 37.6585 97.3904 37.5714 97.3126 37.4621C97.237 37.3504 97.177 37.221 97.1348 37.0759C97.0947 36.9308 97.0725 36.7812 97.0725 36.6228C97.0725 36.4665 97.0947 36.3147 97.1348 36.1696C97.177 36.0246 97.237 35.8951 97.3126 35.7835C97.3904 35.6741 97.4793 35.5871 97.5794 35.5268C97.6816 35.4665 97.7861 35.4375 97.895 35.4375C98.004 35.4375 98.1085 35.4665 98.2085 35.5268C98.3108 35.5871 98.3997 35.6741 98.4753 35.7835C98.5531 35.8951 98.6131 36.0246 98.6531 36.1696C98.6954 36.3147 98.7176 36.4665 98.7176 36.6228Z" fill="#3A7D3F"/>
<path fill-rule="evenodd" clip-rule="evenodd" d="M87.7445 45.2746L88.3803 46.192C88.427 46.2612 88.5226 46.279 88.5915 46.2299C88.6582 46.183 88.676 46.0893 88.6271 46.0201L87.9935 45.1027C87.9446 45.0335 87.8512 45.0156 87.7823 45.0647C87.7134 45.1116 87.6978 45.2076 87.7445 45.2746Z" fill="#3A7D3F"/>
<path fill-rule="evenodd" clip-rule="evenodd" d="M88.3314 45.6719L88.547 44.9755C88.5715 44.8951 88.527 44.8103 88.4492 44.7857C88.3692 44.7612 88.2847 44.8058 88.2603 44.8862L88.0446 45.5826C88.0179 45.663 88.0624 45.7478 88.1424 45.7723C88.2225 45.7969 88.3069 45.7522 88.3314 45.6719Z" fill="#3A7D3F"/>
<path fill-rule="evenodd" clip-rule="evenodd" d="M88.2336 45.7835L88.8472 45.8326C88.9316 45.8393 89.0028 45.7768 89.0094 45.6942C89.0161 45.6116 88.9539 45.538 88.8716 45.5313L88.258 45.4822C88.1758 45.4755 88.1024 45.538 88.0958 45.6205C88.0891 45.7031 88.1513 45.7768 88.2336 45.7835Z" fill="#3A7D3F"/>
<path fill-rule="evenodd" clip-rule="evenodd" d="M89.4385 44.6987C89.4363 44.6987 89.4318 44.6987 89.4296 44.6987C89.3518 44.6942 89.2851 44.7232 89.2318 44.7723C89.174 44.8259 89.134 44.904 89.114 44.9732C89.0762 45.1071 89.0939 45.3103 89.1784 45.442C89.2496 45.5558 89.3629 45.625 89.5208 45.6027C89.6141 45.5893 89.6853 45.5402 89.7297 45.4665C89.7431 45.4888 89.7564 45.5112 89.7698 45.5335C89.7409 45.6384 89.7253 45.75 89.7253 45.875C89.7253 45.9286 89.7609 46.0938 89.8231 46.1741C89.8876 46.2522 89.9676 46.279 90.0565 46.25C90.1788 46.2076 90.2388 46.1183 90.2544 46.0067C90.2699 45.8973 90.2299 45.7612 90.1877 45.6741C90.1588 45.6161 90.1277 45.5603 90.0988 45.5022C90.1321 45.413 90.1744 45.3259 90.2233 45.2277C90.2611 45.1518 90.2299 45.0625 90.1566 45.0246C90.081 44.9866 89.9921 45.0179 89.9543 45.0915C89.9387 45.1228 89.9254 45.1518 89.9098 45.1808C89.8676 45.1116 89.8231 45.0446 89.7764 44.9777C89.7698 44.9665 89.7564 44.9509 89.7431 44.933C89.7253 44.8884 89.7008 44.846 89.6742 44.8103C89.6719 44.8036 89.6386 44.75 89.6297 44.7388C89.6141 44.721 89.6008 44.7098 89.5875 44.7031C89.5297 44.6696 89.4808 44.6763 89.4385 44.6987ZM89.423 45.0156C89.4163 45.029 89.4074 45.0469 89.403 45.058C89.3896 45.1116 89.3918 45.1897 89.4185 45.25C89.4296 45.2768 89.443 45.308 89.4741 45.3036C89.4763 45.3013 89.4785 45.2969 89.4808 45.2924C89.4852 45.2813 89.4896 45.2679 89.4919 45.2522C89.5008 45.1964 89.4941 45.1317 89.4808 45.0893C89.463 45.067 89.4407 45.0402 89.423 45.0156Z" fill="#3A7D3F"/>
<mask id="mask3_213_724" style="mask-type:luminance" maskUnits="userSpaceOnUse" x="43" y="0" width="22" height="63">
<path d="M43.8212 0H64.8781V62.5737H43.8212V0Z" fill="white"/>
</mask>
<g mask="url(#mask3_213_724)">
<path d="M53.9606 62.3349L54.8076 0.0111816" stroke="#014010" stroke-width="3.97297"/>
</g>
</g>
<defs>
<clipPath id="clip0_213_724">
<rect width="105" height="63" fill="white"/>
</clipPath>
</defs>
</svg>
